<mxfile host="65bd71144e">
    <diagram id="GxTOXe4hlzi13LNIGdNd" name="Page-1">
        <mxGraphModel dx="263" dy="613" grid="1" gridSize="10" guides="1" tooltips="1" connect="1" arrows="1" fold="1" page="1" pageScale="1" pageWidth="827" pageHeight="1169" math="0" shadow="0">
            <root>
                <mxCell id="0"/>
                <mxCell id="1" parent="0"/>
                <mxCell id="2" value="" style="shape=image;verticalLabelPosition=bottom;labelBackgroundColor=#ffffff;verticalAlign=top;aspect=fixed;imageAspect=0;image=https://lms.codefactory.live/videos/fswd60/repo/css-img/fswd60-sql-day3/images1/image7.png;" parent="1" vertex="1">
                    <mxGeometry x="90" y="50" width="500" height="520" as="geometry"/>
                </mxCell>
            </root>
        </mxGraphModel>
    </diagram>
    <diagram id="w1Bj9tF-Ak_B5N_XmLY4" name="Page-2">
        <mxGraphModel dx="263" dy="613" grid="1" gridSize="10" guides="1" tooltips="1" connect="1" arrows="1" fold="1" page="1" pageScale="1" pageWidth="827" pageHeight="1169" math="0" shadow="0">
            <root>
                <mxCell id="fIMWSsZh105ggPvd31nW-0"/>
                <mxCell id="fIMWSsZh105ggPvd31nW-1" parent="fIMWSsZh105ggPvd31nW-0"/>
                <mxCell id="fIMWSsZh105ggPvd31nW-2" value="&lt;br&gt;&lt;br&gt;&lt;h2 style=&quot;box-sizing: border-box ; margin-top: 0px ; margin-bottom: 0.5rem ; font-weight: 300 ; line-height: 1.2 ; color: rgb(55 , 58 , 60) ; font-size: 1.875rem ; font-style: normal ; letter-spacing: normal ; text-align: left ; text-indent: 0px ; text-transform: none ; word-spacing: 0px ; background-color: rgb(255 , 255 , 255)&quot;&gt;Exercises: DB admin&lt;/h2&gt;&lt;div class=&quot;box generalbox center clearfix py-3&quot; style=&quot;box-sizing: border-box ; padding-top: 1rem ; padding-bottom: 1rem ; text-align: left ; text-indent: 0px ; background-color: rgb(255 , 255 , 255)&quot;&gt;&lt;div class=&quot;no-overflow&quot; style=&quot;box-sizing: border-box ; overflow: auto&quot;&gt;&lt;p style=&quot;color: rgb(55 , 58 , 60) ; font-size: 15px ; font-style: normal ; font-weight: 400 ; letter-spacing: normal ; text-transform: none ; word-spacing: 0px ; box-sizing: border-box ; margin-top: 0px ; margin-bottom: 1rem&quot;&gt;&lt;span style=&quot;box-sizing: border-box ; font-size: 0.9375rem&quot;&gt;Dear Database administrator, we need the following reports:&lt;/span&gt;&lt;br style=&quot;box-sizing: border-box&quot;&gt;&lt;/p&gt;&lt;p style=&quot;color: rgb(55 , 58 , 60) ; font-size: 15px ; font-style: normal ; font-weight: 400 ; letter-spacing: normal ; text-transform: none ; word-spacing: 0px ; box-sizing: border-box ; margin-top: 0px ; margin-bottom: 1rem&quot;&gt;&lt;br style=&quot;box-sizing: border-box&quot;&gt;&lt;/p&gt;&lt;p style=&quot;color: rgb(55 , 58 , 60) ; font-size: 15px ; font-style: normal ; font-weight: 400 ; letter-spacing: normal ; text-transform: none ; word-spacing: 0px ; box-sizing: border-box ; margin-top: 0px ; margin-bottom: 1rem&quot;&gt;&lt;b style=&quot;box-sizing: border-box ; font-weight: bolder&quot;&gt;&amp;nbsp;1. Report:&lt;/b&gt;&lt;/p&gt;&lt;p style=&quot;color: rgb(55 , 58 , 60) ; font-size: 15px ; font-style: normal ; font-weight: 400 ; letter-spacing: normal ; text-transform: none ; word-spacing: 0px ; box-sizing: border-box ; margin-top: 0px ; margin-bottom: 1rem&quot;&gt;&amp;nbsp;How many rows do we have in each table in the employees database?&lt;/p&gt;&lt;p style=&quot;box-sizing: border-box ; margin-top: 0px ; margin-bottom: 1rem&quot;&gt;&lt;font color=&quot;#373a3c&quot;&gt;&lt;span style=&quot;font-size: 15px&quot;&gt;SELECT COUNT(dept_no) FROM departments;&amp;nbsp;&lt;/span&gt;&lt;/font&gt;&lt;br style=&quot;box-sizing: border-box&quot;&gt;&lt;/p&gt;&lt;p style=&quot;box-sizing: border-box ; margin-top: 0px ; margin-bottom: 1rem&quot;&gt;&lt;font color=&quot;#373a3c&quot;&gt;&lt;span style=&quot;font-size: 15px&quot;&gt;9&lt;/span&gt;&lt;/font&gt;&lt;/p&gt;&lt;p style=&quot;box-sizing: border-box ; margin-top: 0px ; margin-bottom: 1rem&quot;&gt;&lt;font color=&quot;#373a3c&quot;&gt;&lt;span style=&quot;font-size: 15px&quot;&gt;SELECT COUNT(*) FROM dept_emp;&lt;/span&gt;&lt;br&gt;&lt;/font&gt;&lt;/p&gt;&lt;p style=&quot;box-sizing: border-box ; margin-top: 0px ; margin-bottom: 1rem&quot;&gt;&lt;font color=&quot;#373a3c&quot;&gt;&lt;span style=&quot;font-size: 15px&quot;&gt;331.603&lt;/span&gt;&lt;/font&gt;&lt;/p&gt;&lt;p style=&quot;box-sizing: border-box ; margin-top: 0px ; margin-bottom: 1rem&quot;&gt;&lt;span style=&quot;color: rgb(55 , 58 , 60) ; font-size: 15px&quot;&gt;SELECT COUNT(*) FROM dept_manager;&lt;/span&gt;&lt;/p&gt;&lt;p style=&quot;box-sizing: border-box ; margin-top: 0px ; margin-bottom: 1rem&quot;&gt;&lt;span style=&quot;color: rgb(55 , 58 , 60) ; font-size: 15px&quot;&gt;24&lt;/span&gt;&lt;/p&gt;&lt;p style=&quot;box-sizing: border-box ; margin-top: 0px ; margin-bottom: 1rem&quot;&gt;&lt;span style=&quot;color: rgb(55 , 58 , 60) ; font-size: 15px&quot;&gt;SELECT COUNT(emp_no) FROM employees;&lt;/span&gt;&lt;br&gt;&lt;/p&gt;&lt;p style=&quot;box-sizing: border-box ; margin-top: 0px ; margin-bottom: 1rem&quot;&gt;&lt;font color=&quot;#373a3c&quot;&gt;&lt;span style=&quot;font-size: 15px&quot;&gt;300.024&lt;/span&gt;&lt;/font&gt;&lt;/p&gt;&lt;p style=&quot;box-sizing: border-box ; margin-top: 0px ; margin-bottom: 1rem&quot;&gt;&lt;font color=&quot;#373a3c&quot;&gt;&lt;span style=&quot;font-size: 15px&quot;&gt;SELECT COUNT(emp_no) FROM salaries;&lt;/span&gt;&lt;br&gt;&lt;/font&gt;&lt;/p&gt;&lt;p style=&quot;box-sizing: border-box ; margin-top: 0px ; margin-bottom: 1rem&quot;&gt;&lt;font color=&quot;#373a3c&quot;&gt;&lt;span style=&quot;font-size: 15px&quot;&gt;2.844.047&lt;/span&gt;&lt;/font&gt;&lt;/p&gt;&lt;p style=&quot;box-sizing: border-box ; margin-top: 0px ; margin-bottom: 1rem&quot;&gt;&lt;font color=&quot;#373a3c&quot;&gt;&lt;span style=&quot;font-size: 15px&quot;&gt;SELECT COUNT(emp_no) FROM titles;&lt;/span&gt;&lt;br&gt;&lt;/font&gt;&lt;/p&gt;&lt;p style=&quot;box-sizing: border-box ; margin-top: 0px ; margin-bottom: 1rem&quot;&gt;&lt;font color=&quot;#373a3c&quot;&gt;&lt;span style=&quot;font-size: 15px&quot;&gt;443.308&lt;/span&gt;&lt;/font&gt;&lt;/p&gt;&lt;p style=&quot;box-sizing: border-box ; margin-top: 0px ; margin-bottom: 1rem&quot;&gt;&lt;font color=&quot;#373a3c&quot;&gt;&lt;span style=&quot;font-size: 15px&quot;&gt;&lt;br&gt;&lt;/span&gt;&lt;/font&gt;&lt;/p&gt;&lt;p style=&quot;color: rgb(55 , 58 , 60) ; font-size: 15px ; font-style: normal ; font-weight: 400 ; letter-spacing: normal ; text-transform: none ; word-spacing: 0px ; box-sizing: border-box ; margin-top: 0px ; margin-bottom: 1rem&quot;&gt;&lt;b style=&quot;box-sizing: border-box ; font-weight: bolder&quot;&gt;2. Report:&lt;/b&gt;&lt;/p&gt;&lt;p style=&quot;color: rgb(55 , 58 , 60) ; font-size: 15px ; font-style: normal ; font-weight: 400 ; letter-spacing: normal ; text-transform: none ; word-spacing: 0px ; box-sizing: border-box ; margin-top: 0px ; margin-bottom: 1rem&quot;&gt;&lt;span style=&quot;box-sizing: border-box ; font-size: 0.9375rem&quot;&gt;How many employees with the first name &quot;Mark&quot; do we have in our company?&lt;/span&gt;&lt;/p&gt;&lt;p style=&quot;box-sizing: border-box ; margin-top: 0px ; margin-bottom: 1rem&quot;&gt;&lt;font color=&quot;#373a3c&quot;&gt;&lt;span style=&quot;font-size: 15px&quot;&gt;SELECT COUNT(first_name) FROM employees WHERE first_name = 'Mark';&lt;/span&gt;&lt;/font&gt;&lt;/p&gt;&lt;p style=&quot;box-sizing: border-box ; margin-top: 0px ; margin-bottom: 1rem&quot;&gt;&lt;font color=&quot;#373a3c&quot;&gt;&lt;span style=&quot;font-size: 15px&quot;&gt;230&lt;span&gt;&#9;&lt;/span&gt;&lt;/span&gt;&lt;/font&gt;&lt;/p&gt;&lt;div&gt;&lt;br&gt;&lt;/div&gt;&lt;p style=&quot;color: rgb(55 , 58 , 60) ; font-size: 15px ; font-style: normal ; font-weight: 400 ; letter-spacing: normal ; text-transform: none ; word-spacing: 0px ; box-sizing: border-box ; margin-top: 0px ; margin-bottom: 1rem&quot;&gt;&lt;b style=&quot;box-sizing: border-box ; font-weight: bolder&quot;&gt;3. Report:&lt;/b&gt;&lt;/p&gt;&lt;p style=&quot;color: rgb(55 , 58 , 60) ; font-size: 15px ; font-style: normal ; font-weight: 400 ; letter-spacing: normal ; text-transform: none ; word-spacing: 0px ; box-sizing: border-box ; margin-top: 0px ; margin-bottom: 1rem&quot;&gt;&lt;span style=&quot;box-sizing: border-box ; font-size: 0.9375rem&quot;&gt;How many employees with the first name &quot;Eric&quot; and the last name beginning with &quot;A&quot; do we have in our company?&lt;/span&gt;&lt;/p&gt;&lt;p style=&quot;box-sizing: border-box ; margin-top: 0px ; margin-bottom: 1rem&quot;&gt;&lt;font color=&quot;#373a3c&quot;&gt;&lt;span style=&quot;font-size: 15px&quot;&gt;SELECT COUNT(*) FROM `employees` WHERE first_name = 'Eric' AND last_name LIKE 'A%';&lt;/span&gt;&lt;/font&gt;&lt;/p&gt;&lt;p style=&quot;box-sizing: border-box ; margin-top: 0px ; margin-bottom: 1rem&quot;&gt;&lt;font color=&quot;#373a3c&quot;&gt;&lt;span style=&quot;font-size: 15px&quot;&gt;13&lt;span&gt;&#9;&lt;/span&gt;&lt;/span&gt;&lt;/font&gt;&lt;/p&gt;&lt;p style=&quot;box-sizing: border-box ; margin-top: 0px ; margin-bottom: 1rem&quot;&gt;&lt;font color=&quot;#373a3c&quot;&gt;&lt;span style=&quot;font-size: 15px&quot;&gt;For a list:&lt;/span&gt;&lt;/font&gt;&lt;/p&gt;&lt;p style=&quot;box-sizing: border-box ; margin-top: 0px ; margin-bottom: 1rem&quot;&gt;&lt;font color=&quot;#373a3c&quot;&gt;&lt;span style=&quot;font-size: 15px&quot;&gt;SELECT first_name, last_name FROM `employees` WHERE first_name = 'Eric' AND last_name LIKE 'A%';&lt;/span&gt;&lt;/font&gt;&lt;br&gt;&lt;/p&gt;&lt;div&gt;&lt;br&gt;&lt;/div&gt;&lt;p style=&quot;color: rgb(55 , 58 , 60) ; font-size: 15px ; font-style: normal ; font-weight: 400 ; letter-spacing: normal ; text-transform: none ; word-spacing: 0px ; box-sizing: border-box ; margin-top: 0px ; margin-bottom: 1rem&quot;&gt;&lt;b style=&quot;box-sizing: border-box ; font-weight: bolder&quot;&gt;&amp;nbsp;4. Report:&lt;/b&gt;&lt;/p&gt;&lt;p style=&quot;color: rgb(55 , 58 , 60) ; font-size: 15px ; font-style: normal ; font-weight: 400 ; letter-spacing: normal ; text-transform: none ; word-spacing: 0px ; box-sizing: border-box ; margin-top: 0px ; margin-bottom: 1rem&quot;&gt;&lt;span style=&quot;box-sizing: border-box ; font-size: 0.9375rem&quot;&gt;&amp;nbsp;How many employees do we have that are working for us since 1985 and who are they?&lt;/span&gt;&lt;/p&gt;&lt;p style=&quot;box-sizing: border-box ; margin-top: 0px ; margin-bottom: 1rem&quot;&gt;&lt;font color=&quot;#373a3c&quot;&gt;&lt;span style=&quot;font-size: 15px&quot;&gt;SELECT COUNT(*) FROM `employees` WHERE YEAR(hire_date) = 1985;&lt;/span&gt;&lt;/font&gt;&lt;/p&gt;&lt;p style=&quot;box-sizing: border-box ; margin-top: 0px ; margin-bottom: 1rem&quot;&gt;&lt;span style=&quot;font-size: 15px ; color: rgb(55 , 58 , 60)&quot;&gt;35.316&lt;/span&gt;&lt;br&gt;&lt;/p&gt;&lt;p style=&quot;box-sizing: border-box ; margin-top: 0px ; margin-bottom: 1rem&quot;&gt;&lt;span style=&quot;font-size: 15px ; color: rgb(55 , 58 , 60)&quot;&gt;For a list:&lt;/span&gt;&lt;/p&gt;&lt;p style=&quot;box-sizing: border-box ; margin-top: 0px ; margin-bottom: 1rem&quot;&gt;&lt;font color=&quot;#373a3c&quot;&gt;&lt;span style=&quot;font-size: 15px&quot;&gt;SELECT `full_name` FROM `employees` WHERE YEAR(hire_date) = 1985;&lt;/span&gt;&lt;/font&gt;&lt;/p&gt;&lt;div&gt;&lt;br&gt;&lt;/div&gt;&lt;p style=&quot;color: rgb(55 , 58 , 60) ; font-size: 15px ; font-style: normal ; font-weight: 400 ; letter-spacing: normal ; text-transform: none ; word-spacing: 0px ; box-sizing: border-box ; margin-top: 0px ; margin-bottom: 1rem&quot;&gt;&lt;b style=&quot;box-sizing: border-box ; font-weight: bolder&quot;&gt;&amp;nbsp;5. Report:&lt;/b&gt;&lt;/p&gt;&lt;p style=&quot;color: rgb(55 , 58 , 60) ; font-size: 15px ; font-style: normal ; font-weight: 400 ; letter-spacing: normal ; text-transform: none ; word-spacing: 0px ; box-sizing: border-box ; margin-top: 0px ; margin-bottom: 1rem&quot;&gt;&amp;nbsp;How many employees got hired from 1990 until 1997 and who are they?&lt;/p&gt;&lt;p style=&quot;color: rgb(55 , 58 , 60) ; font-size: 15px ; font-style: normal ; font-weight: 400 ; letter-spacing: normal ; text-transform: none ; word-spacing: 0px ; box-sizing: border-box ; margin-top: 0px ; margin-bottom: 1rem&quot;&gt;&lt;br style=&quot;box-sizing: border-box&quot;&gt;&lt;/p&gt;&lt;p style=&quot;color: rgb(55 , 58 , 60) ; font-size: 15px ; font-style: normal ; font-weight: 400 ; letter-spacing: normal ; text-transform: none ; word-spacing: 0px ; box-sizing: border-box ; margin-top: 0px ; margin-bottom: 1rem&quot;&gt;&lt;b style=&quot;box-sizing: border-box ; font-weight: bolder&quot;&gt;&amp;nbsp;6. Report:&lt;/b&gt;&lt;/p&gt;&lt;p style=&quot;color: rgb(55 , 58 , 60) ; font-size: 15px ; font-style: normal ; font-weight: 400 ; letter-spacing: normal ; text-transform: none ; word-spacing: 0px ; box-sizing: border-box ; margin-top: 0px ; margin-bottom: 1rem&quot;&gt;&lt;span style=&quot;box-sizing: border-box ; font-size: 0.9375rem&quot;&gt;&amp;nbsp;How many employees have salaries higher than EUR 70 000,00 and who are they?&amp;nbsp;&lt;/span&gt;&lt;br style=&quot;box-sizing: border-box&quot;&gt;&lt;/p&gt;&lt;p style=&quot;color: rgb(55 , 58 , 60) ; font-size: 15px ; font-style: normal ; font-weight: 400 ; letter-spacing: normal ; text-transform: none ; word-spacing: 0px ; box-sizing: border-box ; margin-top: 0px ; margin-bottom: 1rem&quot;&gt;&lt;br style=&quot;box-sizing: border-box&quot;&gt;&lt;/p&gt;&lt;p style=&quot;color: rgb(55 , 58 , 60) ; font-size: 15px ; font-style: normal ; font-weight: 400 ; letter-spacing: normal ; text-transform: none ; word-spacing: 0px ; box-sizing: border-box ; margin-top: 0px ; margin-bottom: 1rem&quot;&gt;&lt;b style=&quot;box-sizing: border-box ; font-weight: bolder&quot;&gt;&amp;nbsp;7. Report:&lt;/b&gt;&lt;/p&gt;&lt;p style=&quot;color: rgb(55 , 58 , 60) ; font-size: 15px ; font-style: normal ; font-weight: 400 ; letter-spacing: normal ; text-transform: none ; word-spacing: 0px ; box-sizing: border-box ; margin-top: 0px ; margin-bottom: 1rem&quot;&gt;&amp;nbsp;How many employees do we have in the Research Department, who are working for us since 1992 and who are they?&lt;/p&gt;&lt;p style=&quot;color: rgb(55 , 58 , 60) ; font-size: 15px ; font-style: normal ; font-weight: 400 ; letter-spacing: normal ; text-transform: none ; word-spacing: 0px ; box-sizing: border-box ; margin-top: 0px ; margin-bottom: 1rem&quot;&gt;&lt;b style=&quot;box-sizing: border-box ; font-weight: bolder&quot;&gt;TIP: You can use the CURRENT_DATE() FUNCTION to access today's date&lt;/b&gt;&lt;/p&gt;&lt;p style=&quot;color: rgb(55 , 58 , 60) ; font-size: 15px ; font-style: normal ; font-weight: 400 ; letter-spacing: normal ; text-transform: none ; word-spacing: 0px ; box-sizing: border-box ; margin-top: 0px ; margin-bottom: 1rem&quot;&gt;&lt;br style=&quot;box-sizing: border-box&quot;&gt;&lt;/p&gt;&lt;p style=&quot;color: rgb(55 , 58 , 60) ; font-size: 15px ; font-style: normal ; font-weight: 400 ; letter-spacing: normal ; text-transform: none ; word-spacing: 0px ; box-sizing: border-box ; margin-top: 0px ; margin-bottom: 1rem&quot;&gt;&lt;b style=&quot;box-sizing: border-box ; font-weight: bolder&quot;&gt;&amp;nbsp;8. Report:&lt;/b&gt;&lt;/p&gt;&lt;p style=&quot;color: rgb(55 , 58 , 60) ; font-size: 15px ; font-style: normal ; font-weight: 400 ; letter-spacing: normal ; text-transform: none ; word-spacing: 0px ; box-sizing: border-box ; margin-top: 0px ; margin-bottom: 1rem&quot;&gt;&lt;span style=&quot;box-sizing: border-box ; font-size: 0.9375rem&quot;&gt;&amp;nbsp;How many employees do we have in the Finance Department, who are working for us since 1985 until now and who have salaries higher than EUR 75 000,00 - who are they?&lt;/span&gt;&lt;br style=&quot;box-sizing: border-box&quot;&gt;&lt;/p&gt;&lt;p style=&quot;color: rgb(55 , 58 , 60) ; font-size: 15px ; font-style: normal ; font-weight: 400 ; letter-spacing: normal ; text-transform: none ; word-spacing: 0px ; box-sizing: border-box ; margin-top: 0px ; margin-bottom: 1rem&quot;&gt;&lt;br style=&quot;box-sizing: border-box&quot;&gt;&lt;/p&gt;&lt;p style=&quot;color: rgb(55 , 58 , 60) ; font-size: 15px ; font-style: normal ; font-weight: 400 ; letter-spacing: normal ; text-transform: none ; word-spacing: 0px ; box-sizing: border-box ; margin-top: 0px ; margin-bottom: 1rem&quot;&gt;&lt;b style=&quot;box-sizing: border-box ; font-weight: bolder&quot;&gt;&amp;nbsp;9. Report:&lt;/b&gt;&lt;/p&gt;&lt;p style=&quot;color: rgb(55 , 58 , 60) ; font-size: 15px ; font-style: normal ; font-weight: 400 ; letter-spacing: normal ; text-transform: none ; word-spacing: 0px ; box-sizing: border-box ; margin-top: 0px ; margin-bottom: 1rem&quot;&gt;&amp;nbsp;We need a table with employees, who are working for us at this moment: first and last name, date of birth, gender, hire_date, title and salary.&lt;/p&gt;&lt;p style=&quot;color: rgb(55 , 58 , 60) ; font-size: 15px ; font-style: normal ; font-weight: 400 ; letter-spacing: normal ; text-transform: none ; word-spacing: 0px ; box-sizing: border-box ; margin-top: 0px ; margin-bottom: 1rem&quot;&gt;&lt;br style=&quot;box-sizing: border-box&quot;&gt;&lt;/p&gt;&lt;p style=&quot;color: rgb(55 , 58 , 60) ; font-size: 15px ; font-style: normal ; font-weight: 400 ; letter-spacing: normal ; text-transform: none ; word-spacing: 0px ; box-sizing: border-box ; margin-top: 0px ; margin-bottom: 1rem&quot;&gt;&lt;b style=&quot;box-sizing: border-box ; font-weight: bolder&quot;&gt;&amp;nbsp;10. Report:&lt;/b&gt;&lt;/p&gt;&lt;p style=&quot;color: rgb(55 , 58 , 60) ; font-size: 15px ; font-style: normal ; font-weight: 400 ; letter-spacing: normal ; text-transform: none ; word-spacing: 0px ; box-sizing: border-box ; margin-top: 0px ; margin-bottom: 1rem&quot;&gt;&amp;nbsp;We need a table with managers, who are working for us at this moment: first and last name, date of birth, gender, hire_date, title, department name and salary.&lt;/p&gt;&lt;p style=&quot;color: rgb(55 , 58 , 60) ; font-size: 15px ; font-style: normal ; font-weight: 400 ; letter-spacing: normal ; text-transform: none ; word-spacing: 0px ; box-sizing: border-box ; margin-top: 0px ; margin-bottom: 1rem&quot;&gt;&lt;span style=&quot;box-sizing: border-box ; font-size: 0.9375rem&quot;&gt;&lt;br style=&quot;box-sizing: border-box&quot;&gt;&lt;/span&gt;&lt;/p&gt;&lt;p style=&quot;color: rgb(55 , 58 , 60) ; font-size: 15px ; font-style: normal ; font-weight: 400 ; letter-spacing: normal ; text-transform: none ; word-spacing: 0px ; box-sizing: border-box ; margin-top: 0px ; margin-bottom: 1rem&quot;&gt;&lt;b style=&quot;box-sizing: border-box ; font-weight: bolder&quot;&gt;&lt;span style=&quot;box-sizing: border-box ; font-size: 0.9375rem&quot;&gt;&amp;nbsp;Bonus query:&lt;/span&gt;&lt;br style=&quot;box-sizing: border-box&quot;&gt;&lt;/b&gt;&lt;/p&gt;&lt;p style=&quot;color: rgb(55 , 58 , 60) ; font-size: 15px ; font-style: normal ; font-weight: 400 ; letter-spacing: normal ; text-transform: none ; word-spacing: 0px ; box-sizing: border-box ; margin-top: 0px ; margin-bottom: 1rem&quot;&gt;&lt;span style=&quot;box-sizing: border-box ; font-size: 0.9375rem&quot;&gt;&amp;nbsp; Create a query that will join all tables and show all data from all tables.&lt;/span&gt;&lt;br style=&quot;box-sizing: border-box&quot;&gt;&lt;/p&gt;&lt;p style=&quot;color: rgb(55 , 58 , 60) ; font-size: 15px ; font-style: normal ; font-weight: 400 ; letter-spacing: normal ; text-transform: none ; word-spacing: 0px ; box-sizing: border-box ; margin-top: 0px ; margin-bottom: 1rem&quot;&gt;&lt;br style=&quot;box-sizing: border-box&quot;&gt;&lt;/p&gt;&lt;p style=&quot;color: rgb(55 , 58 , 60) ; font-size: 15px ; font-style: normal ; font-weight: 400 ; letter-spacing: normal ; text-transform: none ; word-spacing: 0px ; box-sizing: border-box ; margin-top: 0px ; margin-bottom: 1rem&quot;&gt;&lt;b style=&quot;box-sizing: border-box ; font-weight: bolder&quot;&gt;&amp;nbsp;Next step:&lt;/b&gt;&lt;/p&gt;&lt;p style=&quot;color: rgb(55 , 58 , 60) ; font-size: 15px ; font-style: normal ; font-weight: 400 ; letter-spacing: normal ; text-transform: none ; word-spacing: 0px ; box-sizing: border-box ; margin-top: 0px ; margin-bottom: 1rem&quot;&gt;&lt;span style=&quot;box-sizing: border-box ; font-size: 0.9375rem&quot;&gt;&amp;nbsp;Now you should create at least 5 queries on your own, try to use data from more than 2 tables.&lt;/span&gt;&lt;/p&gt;&lt;p style=&quot;color: rgb(55 , 58 , 60) ; font-size: 15px ; font-style: normal ; font-weight: 400 ; letter-spacing: normal ; text-transform: none ; word-spacing: 0px ; box-sizing: border-box ; margin-top: 0px ; margin-bottom: 1rem&quot;&gt;&lt;br style=&quot;box-sizing: border-box&quot;&gt;&lt;/p&gt;&lt;p style=&quot;color: rgb(55 , 58 , 60) ; font-size: 15px ; font-style: normal ; font-weight: 400 ; letter-spacing: normal ; text-transform: none ; word-spacing: 0px ; box-sizing: border-box ; margin-top: 0px ; margin-bottom: 1rem&quot;&gt;&lt;br style=&quot;box-sizing: border-box&quot;&gt;&lt;/p&gt;&lt;/div&gt;&lt;/div&gt;&lt;div class=&quot;modified&quot; style=&quot;box-sizing: border-box ; color: rgb(55 , 58 , 60) ; font-size: 15px ; font-style: normal ; font-weight: 400 ; letter-spacing: normal ; text-align: left ; text-indent: 0px ; text-transform: none ; word-spacing: 0px ; background-color: rgb(255 , 255 , 255)&quot;&gt;Last modified: Friday, 11 December 2020, 12:28 PM&lt;/div&gt;" style="text;html=1;strokeColor=none;fillColor=none;spacing=5;spacingTop=-20;whiteSpace=wrap;overflow=hidden;rounded=0;" parent="fIMWSsZh105ggPvd31nW-1" vertex="1">
                    <mxGeometry x="40" y="80" width="770" height="1590" as="geometry"/>
                </mxCell>
            </root>
        </mxGraphModel>
    </diagram>
</mxfile>